<?xml version="1.0" standalone="no"?>
<!DOCTYPE svg PUBLIC "-//W3C//DTD SVG 20010904//EN"
 "http://www.w3.org/TR/2001/REC-SVG-20010904/DTD/svg10.dtd">
<svg version="1.0" xmlns="http://www.w3.org/2000/svg"
 width="295.000000pt" height="294.000000pt" viewBox="0 0 295.000000 294.000000"
 preserveAspectRatio="xMidYMid meet">

<g transform="translate(0.000000,294.000000) scale(0.100000,-0.100000)"
fill="#000000" stroke="none">
<path d="M0 1470 l0 -1470 1475 0 1475 0 0 1470 0 1470 -1475 0 -1475 0 0
-1470z m2726 34 l-1 -1271 -60 65 c-33 36 -83 95 -112 131 l-53 66 0 1011 0
1011 -84 6 c-108 9 -296 -2 -296 -17 0 -6 -2 -186 -3 -400 l-2 -390 -375 -5
c-206 -2 -409 -5 -450 -5 -41 0 -166 3 -277 8 l-203 9 0 69 0 69 545 -3 545
-3 0 460 0 460 413 0 413 0 0 -1271z m-2345 919 l59 -71 0 -991 0 -991 185 0
185 0 0 395 0 395 659 0 660 0 6 -44 c14 -89 71 -81 -553 -84 l-552 -2 0 -430
0 -430 -77 -2 c-43 -1 -225 -2 -405 -3 l-328 -1 -2 445 c-2 246 -2 795 0 1221
l3 775 50 -55 c28 -30 77 -87 110 -127z"/>
</g>
</svg>
