<svg width="90" height="89" xmlns="http://www.w3.org/2000/svg" xmlns:xlink="http://www.w3.org/1999/xlink" xml:space="preserve" overflow="hidden"><defs><clipPath id="clip0"><path d="M930.595 660.481C930.595 682.651 912.421 700.623 890.002 700.623 867.583 700.623 849.409 682.651 849.409 660.481 849.409 638.311 867.583 620.339 890.002 620.339 912.421 620.339 930.595 638.311 930.595 660.481Z"/></clipPath></defs><g transform="translate(-845 -616)"><path d="M44.5019 4.33888C22.332 4.33881 4.35973 22.311 4.35966 44.4808 4.36202 51.1329 6.01748 57.6803 9.17719 63.5339 9.40781 63.5881 9.62909 63.676 9.84426 63.775 10.6228 64.1334 11.3584 64.6512 11.7949 65.3889 12.0131 65.7577 12.1514 66.1772 12.1689 66.6054 12.1863 67.0296 12.08 67.4609 11.8498 67.8175 19.3832 78.3613 31.5434 84.6198 44.5019 84.6229 66.6716 84.6229 84.6439 66.6508 84.6441 44.4811 84.6441 22.3112 66.672 4.33894 44.5021 4.33888Z" fill="#0054A6" transform="matrix(1.01124 0 0 1 845 616)"/><path d="M81.6205 29.3908 83.6692 28.4379 85.0536 24.654 86.5064 25.163 85.2585 28.5464 88.7165 29.7384 88.195 31.1554 84.3335 29.8067 82.2042 30.7861" fill="#0054A6" fill-rule="evenodd" transform="matrix(1.01124 0 0 1 845 616)"/><g clip-path="url(#clip0)"><path d="M59.425 49.7502C56.6599 45.9682 51.1961 43.7692 46.5092 42.737 41.8222 41.7046 38.9696 40.9063 36.6912 39.6733 34.0907 38.2662 32.0462 34.1169 32.8447 30.5194 34.0976 24.8736 39.1398 20.8111 44.898 21.6151 47.7736 22.0218 50.2122 23.5443 51.8201 25.6876L58.1958 34.064C61.8401 38.7573 65.9374 40.1541 70.3949 37.9378L72.5638 36.9128C72.7438 36.829 72.9622 36.6599 73.3157 36.7724 73.6691 36.8848 73.8425 37.1898 74.0408 37.5464 74.2392 37.903 74.4488 38.2317 74.822 38.3215 75.1951 38.4113 75.7148 38.3496 75.9578 38.1181 77.6101 36.5431 80.9614 33.3361 80.9614 33.3361 81.8678 32.56 81.6008 31.8477 81.6008 31.8477L80.3529 29.0059C80.3529 29.0059 80.0115 28.3246 78.8319 28.4813L71.8912 29.1192C71.4877 29.1766 71.1275 29.4452 70.9724 29.8549 70.8793 30.0939 70.8731 30.3438 70.9414 30.5704L71.1898 31.3696C71.2396 31.5357 71.2396 31.722 71.1712 31.8927 71.0905 32.1037 70.9292 32.2528 70.7367 32.332L68.7749 33.1624C66.5138 33.9293 64.3858 33.5969 62.8275 31.691L61.0457 29.3241 55.9737 22.5928C53.565 19.3987 49.9331 17.1203 45.6433 16.5213 37.0544 15.3185 29.0831 21.2659 27.8352 29.8051 27.2051 34.1089 27.7971 37.7489 31.0486 41.4673 34.3001 45.1858 40.6236 46.6025 46.1014 47.8578 46.6875 47.9969 48.3364 48.4042 49.3122 48.7567 50.2143 49.0833 52.2921 49.8494 53.9807 51.2313L53.9807 51.2313C55.9983 53.2824 57.0662 56.2127 56.6131 59.2858 55.8494 64.5255 50.9574 68.1759 45.6867 67.437 43.0468 67.0707 40.8179 65.6715 39.342 63.7121L33.2518 55.6291C32.0101 53.9815 30.1322 52.8045 27.9128 52.4878 25.6965 52.1774 23.5516 52.7919 21.8894 54.0373L9.16819 63.5311C9.70744 65.0649 10.3898 66.5893 11.8451 67.8283L24.9605 57.9946C25.5611 57.5849 26.3062 57.3986 27.079 57.5042 27.9017 57.6221 28.6016 58.0542 29.061 58.6651L35.5035 67.3231C37.7726 70.1069 41.0692 72.0786 44.9291 72.6211 53.0494 73.7572 60.5861 68.1327 61.7657 60.0558 62.3118 56.2973 61.393 52.668 59.425 49.7502" fill="#FFFFFF" fill-rule="evenodd" transform="matrix(1.01124 0 0 1 845 616)"/></g></g></svg>